TITLE ""
FILE "DISC2Track29.mp3" MP3
  TRACK 01 AUDIO
    TITLE "DISC2Track29_01"
    INDEX 01 00:00:00
  TRACK 02 AUDIO
    TITLE "DISC2Track29_02"
    INDEX 01 00:01:63
  TRACK 03 AUDIO
    TITLE "DISC2Track29_03"
    INDEX 01 00:02:03
  TRACK 04 AUDIO
    TITLE "DISC2Track29_04"
    INDEX 01 00:04:67
  TRACK 05 AUDIO
    TITLE "DISC2Track29_05"
    INDEX 01 00:08:14
  TRACK 06 AUDIO
    TITLE "DISC2Track29_06"
    INDEX 01 00:10:75
  TRACK 07 AUDIO
    TITLE "DISC2Track29_07"
    INDEX 01 00:11:16
  TRACK 08 AUDIO
    TITLE "DISC2Track29_08"
    INDEX 01 00:14:75
  TRACK 09 AUDIO
    TITLE "DISC2Track29_09"
    INDEX 01 00:18:24
  TRACK 10 AUDIO
    TITLE "DISC2Track29_10"
    INDEX 01 00:21:24
  TRACK 11 AUDIO
    TITLE "DISC2Track29_11"
    INDEX 01 00:21:38
  TRACK 12 AUDIO
    TITLE "DISC2Track29_12"
    INDEX 01 00:23:05
  TRACK 13 AUDIO
    TITLE "DISC2Track29_13"
    INDEX 01 00:25:16
  TRACK 14 AUDIO
    TITLE "DISC2Track29_14"
    INDEX 01 00:26:72
  TRACK 15 AUDIO
    TITLE "DISC2Track29_15"
    INDEX 01 00:27:13
  TRACK 16 AUDIO
    TITLE "DISC2Track29_16"
    INDEX 01 00:31:17
  TRACK 17 AUDIO
    TITLE "DISC2Track29_17"
    INDEX 01 00:34:29
  TRACK 18 AUDIO
    TITLE "DISC2Track29_18"
    INDEX 01 00:37:13
  TRACK 19 AUDIO
    TITLE "DISC2Track29_19"
    INDEX 01 00:37:37
  TRACK 20 AUDIO
    TITLE "DISC2Track29_20"
    INDEX 01 00:41:70
  TRACK 21 AUDIO
    TITLE "DISC2Track29_21"
    INDEX 01 00:44:70
  TRACK 22 AUDIO
    TITLE "DISC2Track29_22"
    INDEX 01 00:47:47
  TRACK 23 AUDIO
    TITLE "DISC2Track29_23"
    INDEX 01 00:47:65
  TRACK 24 AUDIO
    TITLE "DISC2Track29_24"
    INDEX 01 00:52:05
  TRACK 25 AUDIO
    TITLE "DISC2Track29_25"
    INDEX 01 00:55:37
  TRACK 26 AUDIO
    TITLE "DISC2Track29_26"
    INDEX 01 00:58:35
  TRACK 27 AUDIO
    TITLE "DISC2Track29_27"
    INDEX 01 00:58:47
  TRACK 28 AUDIO
    TITLE "DISC2Track29_28"
    INDEX 01 01:01:59
  TRACK 29 AUDIO
    TITLE "DISC2Track29_29"
    INDEX 01 01:04:48
  TRACK 30 AUDIO
    TITLE "DISC2Track29_30"
    INDEX 01 01:07:11
  TRACK 31 AUDIO
    TITLE "DISC2Track29_31"
    INDEX 01 01:07:24
  TRACK 32 AUDIO
    TITLE "DISC2Track29_32"
    INDEX 01 01:09:15
  TRACK 33 AUDIO
    TITLE "DISC2Track29_33"
    INDEX 01 01:11:28
  TRACK 34 AUDIO
    TITLE "DISC2Track29_34"
    INDEX 01 01:13:07
  TRACK 35 AUDIO
    TITLE "DISC2Track29_35"
    INDEX 01 01:13:25
  TRACK 36 AUDIO
    TITLE "DISC2Track29_36"
    INDEX 01 01:16:15
  TRACK 37 AUDIO
    TITLE "DISC2Track29_37"
    INDEX 01 01:18:73
  TRACK 38 AUDIO
    TITLE "DISC2Track29_38"
    INDEX 01 01:21:28
  TRACK 39 AUDIO
    TITLE "DISC2Track29_39"
    INDEX 01 01:21:44
  TRACK 40 AUDIO
    TITLE "DISC2Track29_40"
    INDEX 01 01:24:03
  TRACK 41 AUDIO
    TITLE "DISC2Track29_41"
    INDEX 01 01:26:69
  TRACK 42 AUDIO
    TITLE "DISC2Track29_42"
    INDEX 01 01:29:40
  TRACK 43 AUDIO
    TITLE "DISC2Track29_43"
    INDEX 01 01:29:57
  TRACK 44 AUDIO
    TITLE "DISC2Track29_44"
    INDEX 01 01:32:56
  TRACK 45 AUDIO
    TITLE "DISC2Track29_45"
    INDEX 01 01:35:44
  TRACK 46 AUDIO
    TITLE "DISC2Track29_46"
    INDEX 01 01:38:07
  TRACK 47 AUDIO
    TITLE "DISC2Track29_47"
    INDEX 01 01:38:17
  TRACK 48 AUDIO
    TITLE "DISC2Track29_48"
    INDEX 01 01:42:46
  TRACK 49 AUDIO
    TITLE "DISC2Track29_49"
    INDEX 01 01:47:12
  TRACK 50 AUDIO
    TITLE "DISC2Track29_50"
    INDEX 01 01:51:26
